<svg height="66pt" preserveAspectRatio="xMidYMid meet" viewBox="0 0 754 66" width="754pt" xmlns="http://www.w3.org/2000/svg"><g transform="matrix(.1 0 0 -.1 0 66)"><path d="m223 650c-115-24-184-94-186-187-1-90 62-132 235-157 197-29 255-44 278-73 65-84-24-148-205-148-85 0-107 4-148 24-46 22-77 61-77 96 0 12-12 15-56 15h-57l6-40c18-139 235-215 470-165 131 28 197 86 197 174 0 107-62 146-300 186-193 33-224 46-228 97-6 68 61 108 178 108 112-1 171-28 203-93 18-36 20-37 74-37h55l-7 33c-17 76-61 122-150 152-57 20-219 29-282 15z"/><path d="m2200 540c0-60-2-110-5-110-2 0-20 11-40 24-65 44-194 47-273 7-135-69-174-262-75-372 48-54 104-81 178-86 71-6 128 8 179 42l36 24v-29c0-29 1-30 50-30h50v320 320h-50-50zm-80-142c62-32 82-73 78-160-6-111-59-163-166-163-76 0-120 23-149 78-24 46-22 144 3 188 24 42 94 79 149 79 22 0 61-10 85-22z"/><path d="m2450 605v-45h50 50v45 45h-50-50z"/><path d="m3714 518c35-73 103-217 152-320l89-187 63-1h63l53 112c30 62 99 207 154 321l101 208-65-3-65-3-117-262c-64-145-119-263-122-263-4 0-60 119-125 265l-117 265h-64-63z"/><path d="m4470 605v-45h50 50v45 45h-50-50z"/><path d="m5320 605v-45h50 50v45 45h-50-50z"/><path d="m830 545v-65h-45c-45 0-45 0-45-35s0-35 45-35h45v-174c0-168 1-176 23-202 18-20 35-28 75-32 80-7 102 2 102 43 0 34-1 35-38 35-21 0-43 5-50 12-8 8-12 59-12 165v153h50 50v35 35h-50-50v65 65h-50-50z"/><path d="m2858 477c-100-29-161-95-180-193-30-163 87-284 276-284 126 0 224 48 269 133 17 33 22 59 22 124 0 75-2 85-30 125-46 65-121 99-226 104-52 2-102-1-131-9zm211-83c69-41 89-150 45-239-31-64-63-80-154-80-93 0-122 16-158 86-44 84-12 195 69 237 36 19 55 23 105 19 35-3 76-13 93-23z"/><path d="m4843 481c-80-21-135-76-135-135 0-68 43-93 223-130 70-14 129-26 132-26 4 0 14-11 23-25 15-23 15-27 1-49-45-69-275-54-293 19-6 22-11 25-55 25-55 0-60-10-34-59 24-46 70-79 132-92 73-15 204-7 261 16 78 32 116 102 89 167-19 46-58 63-207 93-128 25-170 43-170 74s35 52 97 58c73 7 136-10 161-42 16-20 29-25 67-25 44 0 46 1 39 23-23 74-87 108-212 113-48 2-101 0-119-5z"/><path d="m5718 477c-100-29-161-95-180-193-30-163 87-284 276-284 126 0 224 48 269 133 17 33 22 59 22 124 0 75-2 85-30 125-46 65-121 99-226 104-52 2-102-1-131-9zm211-83c69-41 89-150 45-239-31-64-63-80-154-80-93 0-122 16-158 86-44 84-12 195 69 237 36 19 55 23 105 19 35-3 76-13 93-23z"/><path d="m6436 476c-22-8-52-24-67-35-37-27-39-27-39 9 0 29-2 30-45 30h-45v-235-235h50 50v153c0 135 2 156 20 185 50 82 220 97 260 23 6-11 10-92 10-190v-171h56 56l-4 189c-3 211-7 224-78 265-43 26-169 32-224 12z"/><path d="m1132 291c3-174 5-192 24-218 33-44 79-65 152-71 78-5 134 8 186 43l36 24v-29c0-29 1-30 50-30h50v235 235h-50-50v-122c-1-187-20-241-97-274-66-28-158-10-183 35-6 11-10 92-10 190v171h-56-56z"/><path d="m2450 245v-235h50 50v235 235h-50-50z"/><path d="m4470 245v-235h50 50v235 235h-50-50z"/><path d="m5320 245v-235h50 50v235 235h-50-50z"/><path d="m6910 450c0-17 7-20 45-20h45v-90-90h30 30v90 90h50c43 0 50 3 50 20 0 19-7 20-125 20s-125-1-125-20z"/><path d="m7210 360v-110h30 30l1 83 1 82 38-82c33-70 43-83 63-83s30 14 64 88l41 87 1-87c1-87 1-88 26-88h25v110 110h-40c-40 0-40 0-79-77l-39-78-38 78-38 77h-43-43z"/></g></svg>