<svg version="1.1" id="Layer_1" xmlns="http://www.w3.org/2000/svg" xmlns:xlink="http://www.w3.org/1999/xlink" x="0px" y="0px"
	 width="100%" viewBox="0 0 400 400" enable-background="new 0 0 400 400" xml:space="preserve">
<path fill="#000000" opacity="1.000000" stroke="none" 
	d="
M189.690781,128.938995 
	C191.811005,114.886047 193.664169,101.243988 194.703568,87.497856 
	C195.266724,80.050224 196.079712,72.621704 196.678238,65.176384 
	C196.857590,62.945351 197.786362,61.821762 200.065887,61.809570 
	C202.803619,61.794933 203.979477,63.399647 204.195206,65.838081 
	C204.634689,70.805984 204.936203,75.785912 205.342957,80.756920 
	C207.210785,103.584160 209.192017,126.378799 214.158920,148.825989 
	C219.753723,174.110825 235.935089,187.478760 260.797638,191.630005 
	C277.376404,194.398132 294.094238,195.690582 310.847534,196.727859 
	C316.980988,197.107620 323.086243,197.930313 329.217804,198.359024 
	C332.394196,198.581131 332.326782,200.555954 332.337036,202.863876 
	C332.348663,205.487000 331.051086,206.176376 328.638153,206.367905 
	C308.263214,207.985092 287.859924,209.311234 267.613800,212.291336 
	C259.509003,213.484299 251.596695,215.407867 244.032913,218.492172 
	C230.220688,224.124435 222.252228,235.144608 217.594345,248.729721 
	C212.825729,262.637787 211.021881,277.201996 209.396866,291.730286 
	C207.680298,307.077209 205.729263,322.407562 204.957153,337.853088 
	C204.822235,340.552216 204.690994,343.729248 200.335266,343.413757 
	C197.900772,343.237427 196.851929,342.482544 196.623535,339.910553 
	C195.403763,326.174774 194.169067,312.436554 192.630203,298.733917 
	C190.944504,283.723969 189.175797,268.711884 185.292892,254.052536 
	C179.599106,232.556549 165.502426,220.194855 144.064392,215.286240 
	C127.640602,211.525711 110.913330,210.287689 94.260452,208.384064 
	C86.832367,207.534927 79.372139,206.936844 71.914024,206.397171 
	C69.330551,206.210220 67.877533,205.400772 67.799057,202.592316 
	C67.724609,199.928116 68.884369,198.457321 71.469925,198.226318 
	C77.595116,197.679031 83.722130,197.126083 89.858635,196.736694 
	C104.120171,195.831772 118.368355,194.787125 132.499451,192.593414 
	C138.738159,191.624908 144.911713,190.305817 150.950760,188.394974 
	C171.576447,181.868713 182.210678,166.840286 186.553650,146.518066 
	C187.766693,140.841812 188.639816,135.092911 189.690781,128.938995 
z"/>
</svg>