<svg width="237" height="50" viewBox="0 0 237 50" fill="none" xmlns="http://www.w3.org/2000/svg">
<path d="M4.83048 10.2151C7.51408 15.8218 12.7279 26.8817 16.485 34.7926L23.309 49.1551L28.1394 49.232H32.9699L37.0337 40.6298C39.3339 35.8679 44.6244 24.7312 48.8415 15.9754L56.5856 0L46.6179 0.460832L37.6471 20.5837C32.7399 31.7204 28.5228 40.7834 28.2928 40.7834C27.9861 40.7834 23.6923 31.6436 18.7085 20.4301L9.73763 0.0768061H0L4.83048 10.2151Z" fill="black"/>
<path d="M62.7962 6.98924H70.4636V0.0768013H62.7962V6.98924Z" fill="black"/>
<path d="M127.969 6.98924H135.637V0.0768013H127.969V6.98924Z" fill="black"/>
<path d="M91.3956 13.0568C85.2617 14.6697 81.0446 18.894 81.0446 23.4255C81.0446 28.6482 84.3416 30.5684 98.143 33.4101C103.51 34.4854 108.034 35.4071 108.264 35.4071C108.571 35.4071 109.337 36.2519 110.027 37.3272C111.178 39.0937 111.178 39.4009 110.104 41.0906C106.654 46.3902 89.0187 45.2381 87.6386 39.6313C87.1786 37.9416 86.7952 37.7112 83.4215 37.7112C79.2044 37.7112 78.8211 38.4793 80.8146 42.2427C82.6548 45.7757 86.1818 48.3103 90.9356 49.3088C96.5328 50.4608 106.577 49.8464 110.948 48.0799C116.928 45.6221 119.842 40.2458 117.772 35.2535C116.315 31.7204 113.324 30.4147 101.9 28.1106C92.0857 26.1905 88.8654 24.808 88.8654 22.427C88.8654 20.0461 91.549 18.4332 96.3028 17.9724C101.9 17.4347 106.73 18.7404 108.647 21.1982C109.874 22.7343 110.871 23.1183 113.785 23.1183C117.158 23.1183 117.312 23.0415 116.775 21.3518C115.011 15.6682 110.104 13.0568 100.52 12.6728C96.8395 12.5192 92.7758 12.6728 91.3956 13.0568Z" fill="black"/>
<path d="M158.486 13.3641C150.818 15.5914 146.141 20.6605 144.684 28.1874C142.384 40.7066 151.355 50 165.846 50C175.507 50 183.021 46.3134 186.472 39.7849C187.775 37.2504 188.159 35.2535 188.159 30.2611C188.159 24.5008 188.005 23.7327 185.858 20.6605C182.331 15.6682 176.581 13.0568 168.53 12.6728C164.543 12.5192 160.709 12.7496 158.486 13.3641ZM174.664 19.7389C179.954 22.8879 181.488 31.2596 178.114 38.0952C175.737 43.0107 173.284 44.2396 166.306 44.2396C159.176 44.2396 156.952 43.0108 154.192 37.6344C150.818 31.1828 153.272 22.6574 159.482 19.4316C162.243 17.9723 163.699 17.6651 167.533 17.9723C170.217 18.2028 173.36 18.9708 174.664 19.7389Z" fill="black"/>
<path d="M213.538 13.4409C211.851 14.0553 209.551 15.2842 208.401 16.129C205.564 18.2028 205.41 18.2028 205.41 15.4378C205.41 13.2104 205.257 13.1336 201.96 13.1336H198.51V49.232H206.177V37.4808C206.177 27.1121 206.33 25.4992 207.71 23.2719C211.544 16.9739 224.579 15.8218 227.646 21.5054C228.106 22.3502 228.412 28.5714 228.412 36.0983V49.232H237L236.693 34.7158C236.463 18.51 236.157 17.5115 230.713 14.3625C227.416 12.3656 217.755 11.9048 213.538 13.4409Z" fill="black"/>
<path d="M62.7962 49.232H70.4636V13.1336H62.7962V49.232Z" fill="black"/>
<path d="M127.969 49.232H135.637V13.1336H127.969V49.232Z" fill="black"/>
</svg>
